<svg width="1080" height="1080" viewBox="0 0 1080 1080" fill="none" xmlns="http://www.w3.org/2000/svg">
<rect width="1080" height="1080" fill="white"/>
<circle cx="522" cy="449" r="160" fill="#EAECF0"/>
<circle cx="354" cy="329" r="16" fill="#F2F4F7"/>
<circle cx="698" cy="541" r="12" fill="#F2F4F7"/>
<circle cx="352" cy="565" r="20" fill="#F2F4F7"/>
<circle cx="722" cy="365" r="20" fill="#F2F4F7"/>
<circle cx="684" cy="311" r="14" fill="#F2F4F7"/>
<g filter="url(#filter0_dd_302_1147)">
<path d="M414.159 537.427L519.061 488.511C524.328 486.055 526.607 479.794 524.151 474.527L462.2 341.672L420.249 326.404L334.419 366.426C329.152 368.882 326.874 375.143 329.33 380.41L400.175 532.338C402.631 537.605 408.892 539.883 414.159 537.427Z" fill="url(#paint0_linear_302_1147)"/>
<path d="M420.25 326.403L462.201 341.672L433.591 355.013L420.25 326.403Z" fill="#D0D5DD"/>
</g>
<g filter="url(#filter1_dd_302_1147)">
<path d="M464.304 501.679H580.051C585.862 501.679 590.573 496.968 590.573 491.156V344.567L559.006 313H464.304C458.492 313 453.781 317.711 453.781 323.522V491.156C453.781 496.968 458.492 501.679 464.304 501.679Z" fill="url(#paint1_linear_302_1147)"/>
<path d="M559.008 313L590.575 344.567H559.008V313Z" fill="#D0D5DD"/>
</g>
<g filter="url(#filter2_dd_302_1147)">
<path d="M523.825 488.448L628.727 537.365C633.994 539.821 640.255 537.542 642.711 532.275L704.662 399.421L689.393 357.47L603.564 317.447C598.297 314.991 592.036 317.27 589.58 322.536L518.735 474.464C516.279 479.731 518.558 485.992 523.825 488.448Z" fill="url(#paint2_linear_302_1147)"/>
<path d="M689.395 357.47L704.663 399.42L676.054 386.08L689.395 357.47Z" fill="#D0D5DD"/>
</g>
<g filter="url(#filter3_b_302_1147)">
<rect x="466" y="465" width="112" height="112" rx="56" fill="url(#paint3_linear_302_1147)"/>
<g clip-path="url(#clip0_302_1147)">
<path d="M531.333 530.333L521.999 521M521.999 521L512.666 530.333M521.999 521V542M541.576 535.91C543.852 534.669 545.65 532.706 546.686 530.33C547.722 527.954 547.937 525.301 547.298 522.789C546.659 520.277 545.201 518.05 543.155 516.458C541.109 514.867 538.591 514.002 535.999 514H533.059C532.353 511.268 531.037 508.732 529.209 506.582C527.382 504.433 525.091 502.725 522.508 501.588C519.926 500.451 517.119 499.915 514.3 500.018C511.48 500.122 508.721 500.864 506.229 502.188C503.737 503.512 501.578 505.383 499.914 507.662C498.249 509.94 497.123 512.566 496.62 515.343C496.116 518.119 496.249 520.973 497.008 523.691C497.766 526.409 499.131 528.919 500.999 531.033" stroke="white" stroke-width="4.66667" stroke-linecap="round" stroke-linejoin="round"/>
</g>
</g>
<path d="M406.808 772H400.088L384.872 749.008V772H378.152V738.448H384.872L400.088 761.488V738.448H406.808V772ZM425.897 772.432C423.337 772.432 421.033 771.872 418.985 770.752C416.937 769.6 415.321 767.984 414.137 765.904C412.985 763.824 412.409 761.424 412.409 758.704C412.409 755.984 413.001 753.584 414.185 751.504C415.401 749.424 417.049 747.824 419.129 746.704C421.209 745.552 423.529 744.976 426.089 744.976C428.649 744.976 430.969 745.552 433.049 746.704C435.129 747.824 436.761 749.424 437.945 751.504C439.161 753.584 439.769 755.984 439.769 758.704C439.769 761.424 439.145 763.824 437.897 765.904C436.681 767.984 435.017 769.6 432.905 770.752C430.825 771.872 428.489 772.432 425.897 772.432ZM425.897 766.576C427.113 766.576 428.249 766.288 429.305 765.712C430.393 765.104 431.257 764.208 431.897 763.024C432.537 761.84 432.857 760.4 432.857 758.704C432.857 756.176 432.185 754.24 430.841 752.896C429.529 751.52 427.913 750.832 425.993 750.832C424.073 750.832 422.457 751.52 421.145 752.896C419.865 754.24 419.225 756.176 419.225 758.704C419.225 761.232 419.849 763.184 421.097 764.56C422.377 765.904 423.977 766.576 425.897 766.576ZM478.103 738.496V743.92H464.135V752.512H474.839V757.84H464.135V772H457.415V738.496H478.103ZM486.917 742.24C485.733 742.24 484.741 741.872 483.941 741.136C483.173 740.368 482.789 739.424 482.789 738.304C482.789 737.184 483.173 736.256 483.941 735.52C484.741 734.752 485.733 734.368 486.917 734.368C488.101 734.368 489.077 734.752 489.845 735.52C490.645 736.256 491.045 737.184 491.045 738.304C491.045 739.424 490.645 740.368 489.845 741.136C489.077 741.872 488.101 742.24 486.917 742.24ZM490.229 745.408V772H483.509V745.408H490.229ZM504.228 736.48V772H497.508V736.48H504.228ZM536.227 758.128C536.227 759.088 536.163 759.952 536.035 760.72H516.595C516.755 762.64 517.427 764.144 518.611 765.232C519.795 766.32 521.251 766.864 522.979 766.864C525.475 766.864 527.251 765.792 528.307 763.648H535.555C534.787 766.208 533.315 768.32 531.139 769.984C528.963 771.616 526.291 772.432 523.123 772.432C520.563 772.432 518.259 771.872 516.211 770.752C514.195 769.6 512.611 767.984 511.459 765.904C510.339 763.824 509.779 761.424 509.779 758.704C509.779 755.952 510.339 753.536 511.459 751.456C512.579 749.376 514.147 747.776 516.163 746.656C518.179 745.536 520.499 744.976 523.123 744.976C525.651 744.976 527.907 745.52 529.891 746.608C531.907 747.696 533.459 749.248 534.547 751.264C535.667 753.248 536.227 755.536 536.227 758.128ZM529.267 756.208C529.235 754.48 528.611 753.104 527.395 752.08C526.179 751.024 524.691 750.496 522.931 750.496C521.267 750.496 519.859 751.008 518.707 752.032C517.587 753.024 516.899 754.416 516.643 756.208H529.267ZM574.538 738.496V743.92H560.57V752.512H571.274V757.84H560.57V772H553.85V738.496H574.538ZM591.751 772.432C589.191 772.432 586.887 771.872 584.839 770.752C582.791 769.6 581.175 767.984 579.991 765.904C578.839 763.824 578.263 761.424 578.263 758.704C578.263 755.984 578.855 753.584 580.039 751.504C581.255 749.424 582.903 747.824 584.983 746.704C587.063 745.552 589.383 744.976 591.943 744.976C594.503 744.976 596.823 745.552 598.903 746.704C600.983 747.824 602.615 749.424 603.799 751.504C605.015 753.584 605.623 755.984 605.623 758.704C605.623 761.424 604.999 763.824 603.751 765.904C602.535 767.984 600.871 769.6 598.759 770.752C596.679 771.872 594.343 772.432 591.751 772.432ZM591.751 766.576C592.967 766.576 594.103 766.288 595.159 765.712C596.247 765.104 597.111 764.208 597.751 763.024C598.391 761.84 598.711 760.4 598.711 758.704C598.711 756.176 598.039 754.24 596.695 752.896C595.383 751.52 593.767 750.832 591.847 750.832C589.927 750.832 588.311 751.52 586.999 752.896C585.719 754.24 585.079 756.176 585.079 758.704C585.079 761.232 585.703 763.184 586.951 764.56C588.231 765.904 589.831 766.576 591.751 766.576ZM636.296 745.408V772H629.528V768.64C628.664 769.792 627.528 770.704 626.12 771.376C624.744 772.016 623.24 772.336 621.608 772.336C619.528 772.336 617.688 771.904 616.088 771.04C614.488 770.144 613.224 768.848 612.296 767.152C611.4 765.424 610.952 763.376 610.952 761.008V745.408H617.672V760.048C617.672 762.16 618.2 763.792 619.256 764.944C620.312 766.064 621.752 766.624 623.576 766.624C625.432 766.624 626.888 766.064 627.944 764.944C629 763.792 629.528 762.16 629.528 760.048V745.408H636.296ZM658.303 745.024C661.471 745.024 664.031 746.032 665.983 748.048C667.935 750.032 668.911 752.816 668.911 756.4V772H662.191V757.312C662.191 755.2 661.663 753.584 660.607 752.464C659.551 751.312 658.111 750.736 656.287 750.736C654.431 750.736 652.959 751.312 651.871 752.464C650.815 753.584 650.287 755.2 650.287 757.312V772H643.567V745.408H650.287V748.72C651.183 747.568 652.319 746.672 653.695 746.032C655.103 745.36 656.639 745.024 658.303 745.024ZM674.213 758.608C674.213 755.92 674.741 753.536 675.797 751.456C676.885 749.376 678.357 747.776 680.213 746.656C682.069 745.536 684.133 744.976 686.405 744.976C688.133 744.976 689.781 745.36 691.349 746.128C692.917 746.864 694.165 747.856 695.093 749.104V736.48H701.909V772H695.093V768.064C694.261 769.376 693.093 770.432 691.589 771.232C690.085 772.032 688.341 772.432 686.357 772.432C684.117 772.432 682.069 771.856 680.213 770.704C678.357 769.552 676.885 767.936 675.797 765.856C674.741 763.744 674.213 761.328 674.213 758.608ZM695.141 758.704C695.141 757.072 694.821 755.68 694.181 754.528C693.541 753.344 692.677 752.448 691.589 751.84C690.501 751.2 689.333 750.88 688.085 750.88C686.837 750.88 685.685 751.184 684.629 751.792C683.573 752.4 682.709 753.296 682.037 754.48C681.397 755.632 681.077 757.008 681.077 758.608C681.077 760.208 681.397 761.616 682.037 762.832C682.709 764.016 683.573 764.928 684.629 765.568C685.717 766.208 686.869 766.528 688.085 766.528C689.333 766.528 690.501 766.224 691.589 765.616C692.677 764.976 693.541 764.08 694.181 762.928C694.821 761.744 695.141 760.336 695.141 758.704Z" fill="#667085"/>
<g clip-path="url(#clip1_302_1147)">
<path d="M672.919 383.426H415.496C412.023 383.428 408.693 384.808 406.237 387.264C403.781 389.72 402.401 393.05 402.398 396.523V632.711C402.401 636.184 403.781 639.514 406.237 641.97C408.693 644.426 412.023 645.806 415.496 645.808H672.919C676.392 645.806 679.722 644.426 682.178 641.97C684.634 639.514 686.015 636.184 686.017 632.711V396.523C686.015 393.05 684.634 389.72 682.178 387.264C679.722 384.808 676.392 383.428 672.919 383.426Z" fill="#C6C6C6"/>
<path d="M655.973 563.734H432.445C425.212 563.734 419.348 557.87 419.348 550.637V341.953C419.348 334.72 425.212 328.855 432.445 328.855H655.973C663.205 328.855 669.07 334.72 669.07 341.953V550.637C669.07 557.87 663.205 563.734 655.973 563.734Z" fill="#F9F9F9"/>
<path d="M423.494 554.782V346.099C423.494 338.866 429.359 333.002 436.592 333.002H660.119C662.674 333.002 665.049 333.745 667.063 335.009C664.747 331.317 660.652 328.855 655.973 328.855H432.445C425.212 328.855 419.348 334.72 419.348 341.953V550.637C419.348 555.318 421.809 559.412 425.501 561.729C424.237 559.713 423.494 557.339 423.494 554.784V554.782Z" fill="url(#paint4_linear_302_1147)"/>
<path d="M628.47 372.947H459.949V382.551H628.47V372.947ZM628.47 409.618H459.949V419.222H628.47V409.618ZM628.47 446.297H459.949V455.9H628.47V446.297ZM628.47 482.967H459.949V492.572H628.47V482.967Z" fill="white"/>
<path d="M480.031 451.969L522.378 494.317H480.031V451.969Z" fill="url(#paint5_linear_302_1147)"/>
<path d="M686.018 497.81V400.375L669.07 383.426V497.809H686.018V497.81Z" fill="#C6C6C6"/>
<path d="M705.869 506.623L687.609 635.881C686.696 642.343 681.166 647.145 674.64 647.145H413.775C407.25 647.145 401.72 642.343 400.807 635.881L376.131 461.223C375.018 453.338 381.137 446.293 389.1 446.293H469.66C476.186 446.293 481.716 451.095 482.629 457.556L485.863 480.429C486.776 486.891 492.306 491.694 498.832 491.694H692.903C700.863 491.694 706.983 498.739 705.87 506.623H705.869Z" fill="url(#paint6_linear_302_1147)"/>
<path d="M641.173 589.491H447.245C446.182 589.491 445.156 589.103 444.359 588.4C443.561 587.697 443.047 586.728 442.913 585.673L440.487 566.463C440.41 565.848 440.464 565.224 440.647 564.633C440.829 564.041 441.136 563.494 441.545 563.03C441.955 562.565 442.459 562.193 443.023 561.938C443.587 561.683 444.2 561.551 444.819 561.551H643.599C644.219 561.551 644.831 561.683 645.395 561.938C645.96 562.193 646.464 562.565 646.873 563.03C647.283 563.494 647.589 564.041 647.771 564.633C647.954 565.224 648.008 565.848 647.931 566.463L645.505 585.673C645.371 586.728 644.857 587.697 644.06 588.4C643.262 589.103 642.236 589.491 641.173 589.491V589.491Z" fill="#D5D5D5"/>
</g>
<defs>
<filter id="filter0_dd_302_1147" x="284.883" y="313.063" width="283.715" height="308.812" filterUnits="userSpaceOnUse" color-interpolation-filters="sRGB">
<feFlood flood-opacity="0" result="BackgroundImageFix"/>
<feColorMatrix in="SourceAlpha" type="matrix" values="0 0 0 0 0 0 0 0 0 0 0 0 0 0 0 0 0 0 127 0" result="hardAlpha"/>
<feMorphology radius="8" operator="erode" in="SourceAlpha" result="effect1_dropShadow_302_1147"/>
<feOffset dy="16"/>
<feGaussianBlur stdDeviation="8"/>
<feColorMatrix type="matrix" values="0 0 0 0 0.0627451 0 0 0 0 0.0941176 0 0 0 0 0.156863 0 0 0 0.03 0"/>
<feBlend mode="normal" in2="BackgroundImageFix" result="effect1_dropShadow_302_1147"/>
<feColorMatrix in="SourceAlpha" type="matrix" values="0 0 0 0 0 0 0 0 0 0 0 0 0 0 0 0 0 0 127 0" result="hardAlpha"/>
<feMorphology radius="8" operator="erode" in="SourceAlpha" result="effect2_dropShadow_302_1147"/>
<feOffset dy="40"/>
<feGaussianBlur stdDeviation="24"/>
<feColorMatrix type="matrix" values="0 0 0 0 0.0627451 0 0 0 0 0.0941176 0 0 0 0 0.156863 0 0 0 0.08 0"/>
<feBlend mode="normal" in2="effect1_dropShadow_302_1147" result="effect2_dropShadow_302_1147"/>
<feBlend mode="normal" in="SourceGraphic" in2="effect2_dropShadow_302_1147" result="shape"/>
</filter>
<filter id="filter1_dd_302_1147" x="413.781" y="313" width="216.795" height="268.679" filterUnits="userSpaceOnUse" color-interpolation-filters="sRGB">
<feFlood flood-opacity="0" result="BackgroundImageFix"/>
<feColorMatrix in="SourceAlpha" type="matrix" values="0 0 0 0 0 0 0 0 0 0 0 0 0 0 0 0 0 0 127 0" result="hardAlpha"/>
<feMorphology radius="8" operator="erode" in="SourceAlpha" result="effect1_dropShadow_302_1147"/>
<feOffset dy="16"/>
<feGaussianBlur stdDeviation="8"/>
<feColorMatrix type="matrix" values="0 0 0 0 0.0627451 0 0 0 0 0.0941176 0 0 0 0 0.156863 0 0 0 0.03 0"/>
<feBlend mode="normal" in2="BackgroundImageFix" result="effect1_dropShadow_302_1147"/>
<feColorMatrix in="SourceAlpha" type="matrix" values="0 0 0 0 0 0 0 0 0 0 0 0 0 0 0 0 0 0 127 0" result="hardAlpha"/>
<feMorphology radius="8" operator="erode" in="SourceAlpha" result="effect2_dropShadow_302_1147"/>
<feOffset dy="40"/>
<feGaussianBlur stdDeviation="24"/>
<feColorMatrix type="matrix" values="0 0 0 0 0.0627451 0 0 0 0 0.0941176 0 0 0 0 0.156863 0 0 0 0.08 0"/>
<feBlend mode="normal" in2="effect1_dropShadow_302_1147" result="effect2_dropShadow_302_1147"/>
<feBlend mode="normal" in="SourceGraphic" in2="effect2_dropShadow_302_1147" result="shape"/>
</filter>
<filter id="filter2_dd_302_1147" x="474.289" y="313" width="283.715" height="308.812" filterUnits="userSpaceOnUse" color-interpolation-filters="sRGB">
<feFlood flood-opacity="0" result="BackgroundImageFix"/>
<feColorMatrix in="SourceAlpha" type="matrix" values="0 0 0 0 0 0 0 0 0 0 0 0 0 0 0 0 0 0 127 0" result="hardAlpha"/>
<feMorphology radius="8" operator="erode" in="SourceAlpha" result="effect1_dropShadow_302_1147"/>
<feOffset dy="16"/>
<feGaussianBlur stdDeviation="8"/>
<feColorMatrix type="matrix" values="0 0 0 0 0.0627451 0 0 0 0 0.0941176 0 0 0 0 0.156863 0 0 0 0.03 0"/>
<feBlend mode="normal" in2="BackgroundImageFix" result="effect1_dropShadow_302_1147"/>
<feColorMatrix in="SourceAlpha" type="matrix" values="0 0 0 0 0 0 0 0 0 0 0 0 0 0 0 0 0 0 127 0" result="hardAlpha"/>
<feMorphology radius="8" operator="erode" in="SourceAlpha" result="effect2_dropShadow_302_1147"/>
<feOffset dy="40"/>
<feGaussianBlur stdDeviation="24"/>
<feColorMatrix type="matrix" values="0 0 0 0 0.0627451 0 0 0 0 0.0941176 0 0 0 0 0.156863 0 0 0 0.08 0"/>
<feBlend mode="normal" in2="effect1_dropShadow_302_1147" result="effect2_dropShadow_302_1147"/>
<feBlend mode="normal" in="SourceGraphic" in2="effect2_dropShadow_302_1147" result="shape"/>
</filter>
<filter id="filter3_b_302_1147" x="450" y="449" width="144" height="144" filterUnits="userSpaceOnUse" color-interpolation-filters="sRGB">
<feFlood flood-opacity="0" result="BackgroundImageFix"/>
<feGaussianBlur in="BackgroundImageFix" stdDeviation="8"/>
<feComposite in2="SourceAlpha" operator="in" result="effect1_backgroundBlur_302_1147"/>
<feBlend mode="normal" in="SourceGraphic" in2="effect1_backgroundBlur_302_1147" result="shape"/>
</filter>
<linearGradient id="paint0_linear_302_1147" x1="407.995" y1="537.837" x2="324.396" y2="387.018" gradientUnits="userSpaceOnUse">
<stop stop-color="#E4E7EC"/>
<stop offset="1" stop-color="#F9FAFB"/>
</linearGradient>
<linearGradient id="paint1_linear_302_1147" x1="458.545" y1="499.445" x2="446.517" y2="327.426" gradientUnits="userSpaceOnUse">
<stop stop-color="#E4E7EC"/>
<stop offset="1" stop-color="#F9FAFB"/>
</linearGradient>
<linearGradient id="paint2_linear_302_1147" x1="519.55" y1="483.99" x2="581.347" y2="323.005" gradientUnits="userSpaceOnUse">
<stop stop-color="#E4E7EC"/>
<stop offset="1" stop-color="#F9FAFB"/>
</linearGradient>
<linearGradient id="paint3_linear_302_1147" x1="522" y1="409" x2="410" y2="521" gradientUnits="userSpaceOnUse">
<stop stop-color="#FF8960"/>
<stop offset="1" stop-color="#FF62A5"/>
</linearGradient>
<linearGradient id="paint4_linear_302_1147" x1="551.889" y1="453.961" x2="386.253" y2="288.324" gradientUnits="userSpaceOnUse">
<stop stop-color="white"/>
</linearGradient>
<linearGradient id="paint5_linear_302_1147" x1="508.01" y1="501.112" x2="456.823" y2="449.927" gradientUnits="userSpaceOnUse">
<stop stop-color="#C2CECE" stop-opacity="0"/>
<stop offset="0.179" stop-color="#AFBCBC" stop-opacity="0.179"/>
<stop offset="1" stop-color="#5B6A6A"/>
</linearGradient>
<linearGradient id="paint6_linear_302_1147" x1="541" y1="446.293" x2="541" y2="647.145" gradientUnits="userSpaceOnUse">
<stop stop-color="#EEF0F4"/>
<stop offset="0.927" stop-color="#E4E4E4"/>
</linearGradient>
<clipPath id="clip0_302_1147">
<rect width="56" height="56" fill="white" transform="translate(494 493)"/>
</clipPath>
<clipPath id="clip1_302_1147">
<rect width="330" height="330" fill="white" transform="translate(376 323)"/>
</clipPath>
</defs>
</svg>
